<?xml version="1.0" encoding="UTF-8"?><svg xmlns="http://www.w3.org/2000/svg" xmlns:xlink="http://www.w3.org/1999/xlink" fill-opacity="1" color-rendering="auto" color-interpolation="auto" text-rendering="auto" stroke="black" stroke-linecap="square" width="1439" stroke-miterlimit="10" shape-rendering="auto" stroke-opacity="1" fill="black" stroke-dasharray="none" font-weight="normal" stroke-width="1" height="421" font-family="'Dialog'" font-style="normal" stroke-linejoin="miter" font-size="12px" stroke-dashoffset="0" image-rendering="auto">
  <!--Generated by ySVG 2.5-->
  <defs id="genericDefs"/>
  <g>
    <defs id="defs1">
      <clipPath clipPathUnits="userSpaceOnUse" id="clipPath1">
        <path d="M0 0 L1439 0 L1439 421 L0 421 L0 0 Z"/>
      </clipPath>
      <clipPath clipPathUnits="userSpaceOnUse" id="clipPath2">
        <path d="M128 177 L1567 177 L1567 598 L128 598 L128 177 Z"/>
      </clipPath>
      <clipPath clipPathUnits="userSpaceOnUse" id="clipPath3">
        <path d="M193 233 L193 270 L367 270 L367 233 Z"/>
      </clipPath>
      <clipPath clipPathUnits="userSpaceOnUse" id="clipPath4">
        <path d="M193 286 L193 323 L367 323 L367 286 Z"/>
      </clipPath>
      <clipPath clipPathUnits="userSpaceOnUse" id="clipPath5">
        <path d="M776 233 L776 270 L950 270 L950 233 Z"/>
      </clipPath>
      <clipPath clipPathUnits="userSpaceOnUse" id="clipPath6">
        <path d="M397 233 L397 270 L571 270 L571 233 Z"/>
      </clipPath>
      <clipPath clipPathUnits="userSpaceOnUse" id="clipPath7">
        <path d="M776 300 L776 337 L950 337 L950 300 Z"/>
      </clipPath>
      <clipPath clipPathUnits="userSpaceOnUse" id="clipPath8">
        <path d="M1244 233 L1244 270 L1418 270 L1418 233 Z"/>
      </clipPath>
      <clipPath clipPathUnits="userSpaceOnUse" id="clipPath9">
        <path d="M878 363 L878 400 L1052 400 L1052 363 Z"/>
      </clipPath>
      <clipPath clipPathUnits="userSpaceOnUse" id="clipPath10">
        <path d="M674 363 L674 400 L848 400 L848 363 Z"/>
      </clipPath>
      <clipPath clipPathUnits="userSpaceOnUse" id="clipPath11">
        <path d="M776 430 L776 467 L950 467 L950 430 Z"/>
      </clipPath>
      <clipPath clipPathUnits="userSpaceOnUse" id="clipPath12">
        <path d="M776 497 L776 534 L950 534 L950 497 Z"/>
      </clipPath>
      <clipPath clipPathUnits="userSpaceOnUse" id="clipPath13">
        <path d="M397 286 L397 323 L571 323 L571 286 Z"/>
      </clipPath>
      <clipPath clipPathUnits="userSpaceOnUse" id="clipPath14">
        <path d="M1244 300 L1244 337 L1418 337 L1418 300 Z"/>
      </clipPath>
      <clipPath clipPathUnits="userSpaceOnUse" id="clipPath15">
        <path d="M193 430 L193 467 L367 467 L367 430 Z"/>
      </clipPath>
    </defs>
    <g fill="white" text-rendering="geometricPrecision" shape-rendering="geometricPrecision" transform="translate(-128,-177)" stroke="white">
      <rect x="128" width="1439" height="421" y="177" clip-path="url(#clipPath2)" stroke="none"/>
    </g>
    <g text-rendering="geometricPrecision" stroke-miterlimit="1.45" shape-rendering="geometricPrecision" transform="matrix(1,0,0,1,-128,-177)" stroke-linecap="butt">
      <rect fill="none" x="1111.5" width="440" height="390" y="192.125" clip-path="url(#clipPath2)"/>
      <text x="1113.5" xml:space="preserve" y="205.2637" clip-path="url(#clipPath2)" font-family="sans-serif" stroke="none">server bundle</text>
      <rect fill="none" x="644.75" width="440" height="390" y="192.125" clip-path="url(#clipPath2)"/>
      <text x="646.75" xml:space="preserve" y="205.2637" clip-path="url(#clipPath2)" font-family="sans-serif" stroke="none">client+server bundled</text>
      <rect fill="none" x="143.5" width="471.25" height="390" y="192.125" clip-path="url(#clipPath2)"/>
      <text x="145.5" xml:space="preserve" y="205.2637" clip-path="url(#clipPath2)" font-family="sans-serif" stroke="none">client bundle</text>
    </g>
    <g fill="rgb(255,204,0)" text-rendering="geometricPrecision" shape-rendering="geometricPrecision" transform="matrix(1,0,0,1,-128,-177)" stroke="rgb(255,204,0)">
      <rect x="194" width="172" height="35" y="234" clip-path="url(#clipPath2)" stroke="none"/>
      <rect x="193" y="233" clip-path="url(#clipPath2)" fill="yellow" width="1" height="37" stroke="none"/>
      <rect x="194" y="233" clip-path="url(#clipPath2)" fill="yellow" width="172" height="1" stroke="none"/>
      <rect x="194" y="269" clip-path="url(#clipPath2)" fill="rgb(178,142,0)" width="173" height="1" stroke="none"/>
      <rect x="366" y="233" clip-path="url(#clipPath2)" fill="rgb(178,142,0)" width="1" height="36" stroke="none"/>
    </g>
    <g font-size="13px" stroke-linecap="butt" transform="matrix(1,0,0,1,-128,-177)" text-rendering="geometricPrecision" font-family="sans-serif" shape-rendering="geometricPrecision" font-weight="bold" stroke-miterlimit="1.45">
      <text x="235.1506" xml:space="preserve" y="250.0669" clip-path="url(#clipPath3)" stroke="none">components</text>
    </g>
    <g fill="rgb(255,204,0)" text-rendering="geometricPrecision" shape-rendering="geometricPrecision" transform="matrix(1,0,0,1,-128,-177)" stroke="rgb(255,204,0)">
      <rect x="194" width="172" height="35" y="287" clip-path="url(#clipPath2)" stroke="none"/>
      <rect x="193" y="286" clip-path="url(#clipPath2)" fill="yellow" width="1" height="37" stroke="none"/>
      <rect x="194" y="286" clip-path="url(#clipPath2)" fill="yellow" width="172" height="1" stroke="none"/>
      <rect x="194" y="322" clip-path="url(#clipPath2)" fill="rgb(178,142,0)" width="173" height="1" stroke="none"/>
      <rect x="366" y="286" clip-path="url(#clipPath2)" fill="rgb(178,142,0)" width="1" height="36" stroke="none"/>
    </g>
    <g font-size="13px" stroke-linecap="butt" transform="matrix(1,0,0,1,-128,-177)" text-rendering="geometricPrecision" font-family="sans-serif" shape-rendering="geometricPrecision" font-weight="bold" stroke-miterlimit="1.45">
      <text x="244.0088" xml:space="preserve" y="303.0669" clip-path="url(#clipPath4)" stroke="none">renderers</text>
    </g>
    <g fill="rgb(255,204,0)" text-rendering="geometricPrecision" shape-rendering="geometricPrecision" transform="matrix(1,0,0,1,-128,-177)" stroke="rgb(255,204,0)">
      <rect x="777" width="172" height="35" y="234" clip-path="url(#clipPath2)" stroke="none"/>
      <rect x="776" y="233" clip-path="url(#clipPath2)" fill="yellow" width="1" height="37" stroke="none"/>
      <rect x="777" y="233" clip-path="url(#clipPath2)" fill="yellow" width="172" height="1" stroke="none"/>
      <rect x="777" y="269" clip-path="url(#clipPath2)" fill="rgb(178,142,0)" width="173" height="1" stroke="none"/>
      <rect x="949" y="233" clip-path="url(#clipPath2)" fill="rgb(178,142,0)" width="1" height="36" stroke="none"/>
    </g>
    <g font-size="13px" stroke-linecap="butt" transform="matrix(1,0,0,1,-128,-177)" text-rendering="geometricPrecision" font-family="sans-serif" shape-rendering="geometricPrecision" font-weight="bold" stroke-miterlimit="1.45">
      <text x="824.5916" xml:space="preserve" y="250.0669" clip-path="url(#clipPath5)" stroke="none">TTSEngine</text>
    </g>
    <g fill="rgb(255,204,0)" text-rendering="geometricPrecision" shape-rendering="geometricPrecision" transform="matrix(1,0,0,1,-128,-177)" stroke="rgb(255,204,0)">
      <rect x="398" width="172" height="35" y="234" clip-path="url(#clipPath2)" stroke="none"/>
      <rect x="397" y="233" clip-path="url(#clipPath2)" fill="yellow" width="1" height="37" stroke="none"/>
      <rect x="398" y="233" clip-path="url(#clipPath2)" fill="yellow" width="172" height="1" stroke="none"/>
      <rect x="398" y="269" clip-path="url(#clipPath2)" fill="rgb(178,142,0)" width="173" height="1" stroke="none"/>
      <rect x="570" y="233" clip-path="url(#clipPath2)" fill="rgb(178,142,0)" width="1" height="36" stroke="none"/>
    </g>
    <g font-size="13px" stroke-linecap="butt" transform="matrix(1,0,0,1,-128,-177)" text-rendering="geometricPrecision" font-family="sans-serif" shape-rendering="geometricPrecision" font-weight="bold" stroke-miterlimit="1.45">
      <text x="449.0815" xml:space="preserve" y="250.0669" clip-path="url(#clipPath6)" stroke="none">TTSClient</text>
    </g>
    <g fill="rgb(255,204,0)" text-rendering="geometricPrecision" shape-rendering="geometricPrecision" transform="matrix(1,0,0,1,-128,-177)" stroke="rgb(255,204,0)">
      <rect x="777" width="172" height="35" y="301" clip-path="url(#clipPath2)" stroke="none"/>
      <rect x="776" y="300" clip-path="url(#clipPath2)" fill="yellow" width="1" height="37" stroke="none"/>
      <rect x="777" y="300" clip-path="url(#clipPath2)" fill="yellow" width="172" height="1" stroke="none"/>
      <rect x="777" y="336" clip-path="url(#clipPath2)" fill="rgb(178,142,0)" width="173" height="1" stroke="none"/>
      <rect x="949" y="300" clip-path="url(#clipPath2)" fill="rgb(178,142,0)" width="1" height="36" stroke="none"/>
    </g>
    <g font-size="13px" stroke-linecap="butt" transform="matrix(1,0,0,1,-128,-177)" text-rendering="geometricPrecision" font-family="sans-serif" shape-rendering="geometricPrecision" font-weight="bold" stroke-miterlimit="1.45">
      <text x="826.0039" xml:space="preserve" y="317.0669" clip-path="url(#clipPath7)" stroke="none">TTSConfig</text>
    </g>
    <g fill="rgb(255,204,0)" text-rendering="geometricPrecision" shape-rendering="geometricPrecision" transform="matrix(1,0,0,1,-128,-177)" stroke="rgb(255,204,0)">
      <rect x="1245" width="172" height="35" y="234" clip-path="url(#clipPath2)" stroke="none"/>
      <rect x="1244" y="233" clip-path="url(#clipPath2)" fill="yellow" width="1" height="37" stroke="none"/>
      <rect x="1245" y="233" clip-path="url(#clipPath2)" fill="yellow" width="172" height="1" stroke="none"/>
      <rect x="1245" y="269" clip-path="url(#clipPath2)" fill="rgb(178,142,0)" width="173" height="1" stroke="none"/>
      <rect x="1417" y="233" clip-path="url(#clipPath2)" fill="rgb(178,142,0)" width="1" height="36" stroke="none"/>
    </g>
    <g font-size="13px" stroke-linecap="butt" transform="matrix(1,0,0,1,-128,-177)" text-rendering="geometricPrecision" font-family="sans-serif" shape-rendering="geometricPrecision" font-weight="bold" stroke-miterlimit="1.45">
      <text x="1293.8044" xml:space="preserve" y="250.0669" clip-path="url(#clipPath8)" stroke="none">TTSServer</text>
    </g>
    <g fill="rgb(255,204,0)" text-rendering="geometricPrecision" shape-rendering="geometricPrecision" transform="matrix(1,0,0,1,-128,-177)" stroke="rgb(255,204,0)">
      <rect x="879" width="172" height="35" y="364" clip-path="url(#clipPath2)" stroke="none"/>
      <rect x="878" y="363" clip-path="url(#clipPath2)" fill="yellow" width="1" height="37" stroke="none"/>
      <rect x="879" y="363" clip-path="url(#clipPath2)" fill="yellow" width="172" height="1" stroke="none"/>
      <rect x="879" y="399" clip-path="url(#clipPath2)" fill="rgb(178,142,0)" width="173" height="1" stroke="none"/>
      <rect x="1051" y="363" clip-path="url(#clipPath2)" fill="rgb(178,142,0)" width="1" height="36" stroke="none"/>
    </g>
    <g font-size="13px" stroke-linecap="butt" transform="matrix(1,0,0,1,-128,-177)" text-rendering="geometricPrecision" font-family="sans-serif" shape-rendering="geometricPrecision" font-weight="bold" stroke-miterlimit="1.45">
      <text x="949.7241" xml:space="preserve" y="380.5669" clip-path="url(#clipPath9)" stroke="none">i18n</text>
    </g>
    <g fill="rgb(255,204,0)" text-rendering="geometricPrecision" shape-rendering="geometricPrecision" transform="matrix(1,0,0,1,-128,-177)" stroke="rgb(255,204,0)">
      <rect x="675" width="172" height="35" y="364" clip-path="url(#clipPath2)" stroke="none"/>
      <rect x="674" y="363" clip-path="url(#clipPath2)" fill="yellow" width="1" height="37" stroke="none"/>
      <rect x="675" y="363" clip-path="url(#clipPath2)" fill="yellow" width="172" height="1" stroke="none"/>
      <rect x="675" y="399" clip-path="url(#clipPath2)" fill="rgb(178,142,0)" width="173" height="1" stroke="none"/>
      <rect x="847" y="363" clip-path="url(#clipPath2)" fill="rgb(178,142,0)" width="1" height="36" stroke="none"/>
    </g>
    <g font-size="13px" stroke-linecap="butt" transform="matrix(1,0,0,1,-128,-177)" text-rendering="geometricPrecision" font-family="sans-serif" shape-rendering="geometricPrecision" font-weight="bold" stroke-miterlimit="1.45">
      <text x="739.2654" xml:space="preserve" y="380.5669" clip-path="url(#clipPath10)" stroke="none">errors</text>
    </g>
    <g fill="rgb(255,204,0)" text-rendering="geometricPrecision" shape-rendering="geometricPrecision" transform="matrix(1,0,0,1,-128,-177)" stroke="rgb(255,204,0)">
      <rect x="777" width="172" height="35" y="431" clip-path="url(#clipPath2)" stroke="none"/>
      <rect x="776" y="430" clip-path="url(#clipPath2)" fill="yellow" width="1" height="37" stroke="none"/>
      <rect x="777" y="430" clip-path="url(#clipPath2)" fill="yellow" width="172" height="1" stroke="none"/>
      <rect x="777" y="466" clip-path="url(#clipPath2)" fill="rgb(178,142,0)" width="173" height="1" stroke="none"/>
      <rect x="949" y="430" clip-path="url(#clipPath2)" fill="rgb(178,142,0)" width="1" height="36" stroke="none"/>
    </g>
    <g font-size="13px" stroke-linecap="butt" transform="matrix(1,0,0,1,-128,-177)" text-rendering="geometricPrecision" font-family="sans-serif" shape-rendering="geometricPrecision" font-weight="bold" stroke-miterlimit="1.45">
      <text x="831.4946" xml:space="preserve" y="447.5669" clip-path="url(#clipPath11)" stroke="none">contexts</text>
    </g>
    <g fill="rgb(255,204,0)" text-rendering="geometricPrecision" shape-rendering="geometricPrecision" transform="matrix(1,0,0,1,-128,-177)" stroke="rgb(255,204,0)">
      <rect x="777" width="172" height="35" y="498" clip-path="url(#clipPath2)" stroke="none"/>
      <rect x="776" y="497" clip-path="url(#clipPath2)" fill="yellow" width="1" height="37" stroke="none"/>
      <rect x="777" y="497" clip-path="url(#clipPath2)" fill="yellow" width="172" height="1" stroke="none"/>
      <rect x="777" y="533" clip-path="url(#clipPath2)" fill="rgb(178,142,0)" width="173" height="1" stroke="none"/>
      <rect x="949" y="497" clip-path="url(#clipPath2)" fill="rgb(178,142,0)" width="1" height="36" stroke="none"/>
    </g>
    <g font-size="13px" stroke-linecap="butt" transform="matrix(1,0,0,1,-128,-177)" text-rendering="geometricPrecision" font-family="sans-serif" shape-rendering="geometricPrecision" font-weight="bold" stroke-miterlimit="1.45">
      <text x="842.8506" xml:space="preserve" y="514.5669" clip-path="url(#clipPath12)" stroke="none">types</text>
    </g>
    <g fill="rgb(255,204,0)" text-rendering="geometricPrecision" shape-rendering="geometricPrecision" transform="matrix(1,0,0,1,-128,-177)" stroke="rgb(255,204,0)">
      <rect x="398" width="172" height="35" y="287" clip-path="url(#clipPath2)" stroke="none"/>
      <rect x="397" y="286" clip-path="url(#clipPath2)" fill="yellow" width="1" height="37" stroke="none"/>
      <rect x="398" y="286" clip-path="url(#clipPath2)" fill="yellow" width="172" height="1" stroke="none"/>
      <rect x="398" y="322" clip-path="url(#clipPath2)" fill="rgb(178,142,0)" width="173" height="1" stroke="none"/>
      <rect x="570" y="286" clip-path="url(#clipPath2)" fill="rgb(178,142,0)" width="1" height="36" stroke="none"/>
    </g>
    <g font-size="13px" stroke-linecap="butt" transform="matrix(1,0,0,1,-128,-177)" text-rendering="geometricPrecision" font-family="sans-serif" shape-rendering="geometricPrecision" font-weight="bold" stroke-miterlimit="1.45">
      <text x="421.0281" xml:space="preserve" y="303.0669" clip-path="url(#clipPath13)" stroke="none">utils (client-only)</text>
    </g>
    <g fill="rgb(255,204,0)" text-rendering="geometricPrecision" shape-rendering="geometricPrecision" transform="matrix(1,0,0,1,-128,-177)" stroke="rgb(255,204,0)">
      <rect x="1245" width="172" height="35" y="301" clip-path="url(#clipPath2)" stroke="none"/>
      <rect x="1244" y="300" clip-path="url(#clipPath2)" fill="yellow" width="1" height="37" stroke="none"/>
      <rect x="1245" y="300" clip-path="url(#clipPath2)" fill="yellow" width="172" height="1" stroke="none"/>
      <rect x="1245" y="336" clip-path="url(#clipPath2)" fill="rgb(178,142,0)" width="173" height="1" stroke="none"/>
      <rect x="1417" y="300" clip-path="url(#clipPath2)" fill="rgb(178,142,0)" width="1" height="36" stroke="none"/>
    </g>
    <g font-size="13px" stroke-linecap="butt" transform="matrix(1,0,0,1,-128,-177)" text-rendering="geometricPrecision" font-family="sans-serif" shape-rendering="geometricPrecision" font-weight="bold" stroke-miterlimit="1.45">
      <text x="1265.6462" xml:space="preserve" y="317.0669" clip-path="url(#clipPath14)" stroke="none">utils (server-only)</text>
    </g>
    <g fill="rgb(255,204,0)" text-rendering="geometricPrecision" shape-rendering="geometricPrecision" transform="matrix(1,0,0,1,-128,-177)" stroke="rgb(255,204,0)">
      <rect x="194" width="172" height="35" y="431" clip-path="url(#clipPath2)" stroke="none"/>
      <rect x="193" y="430" clip-path="url(#clipPath2)" fill="yellow" width="1" height="37" stroke="none"/>
      <rect x="194" y="430" clip-path="url(#clipPath2)" fill="yellow" width="172" height="1" stroke="none"/>
      <rect x="194" y="466" clip-path="url(#clipPath2)" fill="rgb(178,142,0)" width="173" height="1" stroke="none"/>
      <rect x="366" y="430" clip-path="url(#clipPath2)" fill="rgb(178,142,0)" width="1" height="36" stroke="none"/>
    </g>
    <g font-size="13px" stroke-linecap="butt" transform="matrix(1,0,0,1,-128,-177)" text-rendering="geometricPrecision" font-family="sans-serif" shape-rendering="geometricPrecision" font-weight="bold" stroke-miterlimit="1.45">
      <text x="213.3909" xml:space="preserve" y="447.5669" clip-path="url(#clipPath15)" stroke="none">specific-renderers</text>
      <path fill="none" d="M570.96 251.5 L761.1389 251.5" clip-path="url(#clipPath2)"/>
    </g>
    <g stroke-linecap="butt" transform="matrix(1,0,0,1,-128,-177)" fill="white" text-rendering="geometricPrecision" shape-rendering="geometricPrecision" stroke="white" stroke-miterlimit="1.45">
      <path d="M776.1389 251.5 L760.1389 245.5 L760.1389 257.5 Z" stroke="none" clip-path="url(#clipPath2)"/>
      <path fill="none" d="M776.1389 251.5 L760.1389 245.5 L760.1389 257.5 Z" clip-path="url(#clipPath2)" stroke="black"/>
      <path fill="none" stroke-dasharray="6,2" d="M863.125 269.9839 L863.125 294.9748" clip-path="url(#clipPath2)" stroke="black"/>
      <path fill="black" stroke-dasharray="6,2" d="M863.125 298.9748 L869.125 286.9748 L863.125 298.9748 L857.125 286.9748 Z" clip-path="url(#clipPath2)" stroke="none"/>
    </g>
    <g text-rendering="geometricPrecision" shape-rendering="geometricPrecision" transform="matrix(1,0,0,1,-128,-177)">
      <path fill="none" d="M863.125 298.9748 L869.125 286.9748 L863.125 298.9748 L857.125 286.9748 Z" clip-path="url(#clipPath2)"/>
      <path fill="none" stroke-miterlimit="1.45" d="M1244.5087 251.5 L965.1375 251.5" clip-path="url(#clipPath2)" stroke-linecap="butt"/>
    </g>
    <g stroke-linecap="butt" transform="matrix(1,0,0,1,-128,-177)" fill="white" text-rendering="geometricPrecision" shape-rendering="geometricPrecision" stroke="white" stroke-miterlimit="1.45">
      <path d="M950.1375 251.5 L966.1375 257.5 L966.1375 245.5 Z" stroke="none" clip-path="url(#clipPath2)"/>
      <path fill="none" d="M950.1375 251.5 L966.1375 257.5 L966.1375 245.5 Z" clip-path="url(#clipPath2)" stroke="black"/>
      <path fill="none" d="M769.1047 449 L366.994 449" clip-path="url(#clipPath2)" stroke="black"/>
      <path d="M776.1047 449 L769.1047 454 L762.1047 449 L769.1047 444 Z" clip-path="url(#clipPath2)" stroke="none"/>
      <path fill="none" d="M776.1047 449 L769.1047 454 L762.1047 449 L769.1047 444 Z" clip-path="url(#clipPath2)" stroke="black"/>
      <path fill="none" d="M769.1047 516 L280 516 L280 467.4839" clip-path="url(#clipPath2)" stroke="black"/>
      <path d="M776.1047 516 L769.1047 521 L762.1047 516 L769.1047 511 Z" clip-path="url(#clipPath2)" stroke="none"/>
      <path fill="none" d="M776.1047 516 L769.1047 521 L762.1047 516 L769.1047 511 Z" clip-path="url(#clipPath2)" stroke="black"/>
      <path fill="none" stroke-dasharray="6,2" d="M280 430.4789 L280 337.9847" clip-path="url(#clipPath2)" stroke="black"/>
      <path stroke-dasharray="6,2" d="M280 322.9847 L274 338.9847 L286 338.9847 Z" clip-path="url(#clipPath2)" stroke="none"/>
      <path fill="none" d="M280 322.9847 L274 338.9847 L286 338.9847 Z" clip-path="url(#clipPath2)" stroke="black"/>
    </g>
  </g>
</svg>
